<?xml version="1.0" encoding="utf-8"?>
<!-- Generator: Adobe Illustrator 25.2.1, SVG Export Plug-In . SVG Version: 6.00 Build 0)  -->
<svg version="1.1" id="Layer_1" xmlns="http://www.w3.org/2000/svg" xmlns:xlink="http://www.w3.org/1999/xlink" x="0px" y="0px"
	 viewBox="0 0 118 30" style="enable-background:new 0 0 118 30;" xml:space="preserve">
<style type="text/css">
	.st0{fill:#FFFFFF;}
</style>
<path class="st0" d="M30,13.4v2.5c0,4.3-1.4,7.8-4.1,10.3c-2.7,2.6-6.1,3.8-10.2,3.8c-4.5,0-8.3-1.4-11.2-4.3C1.5,22.8,0,19.2,0,15
	S1.5,7.3,4.4,4.4C7.4,1.5,11,0,15.2,0c2.7,0,5.2,0.6,7.4,1.8c2.3,1.2,4,2.8,5.3,4.8l-5.6,3.2c-0.6-1-1.6-1.8-2.9-2.4
	c-1.2-0.6-2.7-0.9-4.2-0.9c-2.5,0-4.5,0.8-6.1,2.4c-1.6,1.6-2.4,3.7-2.4,6.2c0,2.5,0.8,4.5,2.5,6.1c1.7,1.6,3.9,2.3,6.6,2.3
	c3.8,0,6.3-1.5,7.4-4.5h-7.8v-5.8H30z"/>
<path class="st0" d="M44.7,0.6c2.8,0,5.3,1,7.2,2.9c2,1.9,2.9,4.3,2.9,7c0,2.7-1,5.1-2.9,7c-2,1.9-4.4,2.9-7.2,2.9h-4.4v9.1h-6.6
	V0.6H44.7z M44.7,14.2c1,0,1.9-0.4,2.5-1.1c0.7-0.7,1-1.6,1-2.6c0-1-0.3-1.9-1-2.6c-0.7-0.7-1.5-1.1-2.5-1.1h-4.4v7.4H44.7z"/>
<path class="st0" d="M77.3,0.6v6.3h-7.5v22.5h-6.6V6.9h-7.5V0.6H77.3z"/>
<path class="st0" d="M78.2,20.1v-5.9h15.8v5.9H78.2z"/>
<path class="st0" d="M111.8,12.3c1.9,0.6,3.3,1.7,4.5,3.1c1.1,1.4,1.7,3.1,1.7,5c0,3-1,5.4-3.1,7.1c-2,1.7-4.6,2.6-7.5,2.6
	c-2.3,0-4.4-0.5-6.2-1.6c-1.8-1-3.1-2.6-4-4.6l5.7-3.3c0.7,2,2.2,3,4.4,3c1.3,0,2.3-0.3,2.9-0.9c0.7-0.6,1-1.4,1-2.3
	c0-0.9-0.3-1.7-1-2.3c-0.7-0.6-1.6-0.9-2.9-0.9H106l-2.5-3.8l5.3-6.6H98.2V0.6h18.7v5.4L111.8,12.3z"/>
</svg>
